<svg width="67" height="57" viewBox="0 0 67 57" fill="none" xmlns="http://www.w3.org/2000/svg">
<path d="M50.875 4.15967L60.7314 19.0942L66.6094 35.105L57.7646 51.6743L43.6025 56.9556H17.7266L6.10742 49.6333L0.28125 35.0161L5.59668 18.1733L5.74023 17.7163L16.5693 4.77393L17.1113 4.12451L34.0176 0.666504L50.875 4.15967ZM19.4385 31.4399L21.2754 52.1157H41.4873L44.3496 30.6226L30.0889 19.4771L19.4385 31.4399ZM49.1543 31.2036L46.5596 50.687L54.3564 47.7788L61.3184 34.7378L57.5596 24.4985L49.1543 31.2036ZM5.41602 34.8257L10.0195 46.3784L16.2549 50.3081L14.5879 31.5308L8.81738 24.0483L5.41602 34.8257ZM19.7393 8.52686L11.0068 18.9634L17.0693 26.8228L27.8447 14.7173L30.4756 6.33057L19.7393 8.52686ZM32.709 15.3813L47.1143 26.6401L55.498 19.9517L47.9355 8.49268L35.667 5.95068L32.709 15.3813Z" fill="#2C2C83"/>
</svg>
