<svg xmlns="http://www.w3.org/2000/svg" viewBox="-45.9 16.4 1238.6 278.3">
  <path d="M83.1 254.7Q80.7 254.7 79.2 253.95Q77.7 253.2 78.0 250.8Q78.0 249.9 78.9 248.10000000000002Q79.8 246.3 80.1 245.4Q81.6 241.2 82.8 236.85Q84.0 232.5 85.2 228.6Q89.39999999999999 212.1 93.0 195.75Q96.6 179.4 98.7 162.9Q99.3 158.7 99.6 153.15Q99.89999999999999 147.60000000000002 99.89999999999999 141.3Q99.89999999999999 126.9 96.89999999999999 110.7Q93.89999999999999 94.5 85.2 84.30000000000001H62.4Q57.9 84.30000000000001 49.95 84.9Q42.0 85.5 33.75 87.60000000000001Q25.5 89.70000000000002 20.1 94.50000000000001Q14.7 99.30000000000001 15.299999999999999 107.4Q15.6 109.80000000000001 17.099999999999998 113.85000000000001Q18.599999999999998 117.9 19.2 118.80000000000001L15.899999999999999 121.2Q14.1 117.9 11.399999999999999 113.55000000000001Q8.7 109.20000000000002 6.6 105.00000000000001Q4.5 100.80000000000001 4.2 98.70000000000002Q3.9 95.70000000000002 4.5 90.9Q5.1 86.1 9.299999999999999 82.5Q13.799999999999999 78.6 21.75 77.4Q29.7 76.20000000000002 38.1 76.20000000000002Q46.199999999999996 76.20000000000002 53.699999999999996 76.80000000000001Q61.199999999999996 77.4 66.0 77.4Q66.0 77.4 72.9 77.4Q79.8 77.4 90.44999999999999 77.25Q101.1 77.1 113.1 77.1Q125.1 77.1 135.0 77.1L128.7 84.9Q119.69999999999999 84.9 110.85 84.75Q102.0 84.6 93.0 84.6Q102.6 90.9 107.25 101.10000000000001Q111.89999999999999 111.30000000000001 113.39999999999999 122.4Q114.89999999999999 133.5 114.89999999999999 143.10000000000002Q114.89999999999999 147.0 114.75 150.6Q114.6 154.2 114.6 156.9Q114.0 171.0 110.69999999999999 190.8Q107.39999999999999 210.6 102.3 228.3Q112.2 214.5 124.65 195.45Q137.1 176.4 152.85 155.25Q168.6 134.10000000000002 187.2 114.30000000000001Q194.7 106.5 203.1 98.4Q211.5 90.30000000000001 221.1 84.9Q230.7 79.5 241.79999999999998 79.5Q251.39999999999998 79.5 256.5 82.5L254.7 85.80000000000001Q253.5 85.5 252.45 85.35000000000001Q251.39999999999998 85.20000000000002 249.89999999999998 85.20000000000002Q241.5 85.20000000000002 232.05 90.30000000000001Q222.6 95.4 217.5 100.5Q208.2 109.80000000000001 203.1 122.55000000000001Q198.0 135.3 195.75 149.55Q193.5 163.8 192.3 178.35000000000002Q191.1 192.9 190.05 205.8Q189.0 218.7 186.29999999999998 228.3Q198.6 210.9 216.75 186.9Q234.89999999999998 162.9 258.29999999999995 136.95Q281.7 111.0 309.59999999999997 87.6Q315.3 82.80000000000001 324.45 76.80000000000001Q333.59999999999997 70.80000000000001 343.95 66.45Q354.3 62.099999999999994 363.59999999999997 62.099999999999994Q372.3 62.099999999999994 375.75 65.1Q379.2 68.1 379.2 72.9Q379.2 78.6 375.75 85.5Q372.3 92.4 370.5 96.9Q370.2 97.80000000000001 367.79999999999995 98.10000000000001Q365.4 98.4 365.7 97.20000000000002Q366.3 94.80000000000001 367.05 91.35000000000001Q367.8 87.9 367.8 84.30000000000001Q367.8 79.5 366.0 75.60000000000001Q364.2 71.70000000000002 359.09999999999997 71.1Q358.2 70.80000000000001 357.29999999999995 70.80000000000001Q356.4 70.80000000000001 355.5 70.80000000000001Q347.09999999999997 70.80000000000001 337.2 76.65Q327.3 82.5 314.4 93.0Q289.2 113.10000000000001 266.1 137.25Q243.0 161.4 222.29999999999998 187.8Q211.5 201.3 201.3 215.10000000000002Q191.1 228.9 182.4 243.9Q181.79999999999998 245.1 181.35 246.75Q180.9 248.4 180.29999999999998 249.3Q179.7 249.9 176.7 251.25Q173.7 252.6 170.85 253.64999999999998Q168.0 254.7 167.1 254.7Q164.7 254.7 163.2 253.95Q161.7 253.2 162.0 250.8Q162.0 249.9 162.89999999999998 248.10000000000002Q163.79999999999998 246.3 164.1 245.4Q165.6 241.2 166.8 236.85Q168.0 232.5 169.2 228.6Q172.79999999999998 215.4 174.45 200.7Q176.1 186.0 177.75 171.15Q179.4 156.3 183.0 142.5Q186.6 128.7 194.1 117.60000000000001Q188.1 121.2 177.0 135.15Q165.9 149.10000000000002 150.0 168.9Q144.6 175.5 138.0 185.25Q131.4 195.0 124.65 205.65Q117.89999999999999 216.3 111.75 226.35000000000002Q105.6 236.4 101.39999999999999 243.9Q100.8 245.1 100.35 246.75Q99.89999999999999 248.4 99.3 249.3Q98.7 249.9 94.95 251.25Q91.2 252.6 87.6 253.64999999999998Q84.0 254.7 83.1 254.7Z" fill="#1a1a1a"/>
  <path d="M340.19999999999993 125.4Q335.99999999999994 125.4 334.19999999999993 122.7Q332.99999999999994 121.2 332.99999999999994 118.80000000000001Q332.99999999999994 114.0 337.49999999999994 111.0Q340.79999999999995 109.20000000000002 343.49999999999994 109.20000000000002Q347.99999999999994 109.20000000000002 349.79999999999995 111.9Q350.99999999999994 113.4 350.99999999999994 115.80000000000001Q350.99999999999994 120.60000000000001 346.19999999999993 123.60000000000001Q343.49999999999994 125.4 340.19999999999993 125.4ZM287.99999999999994 240.9Q284.99999999999994 240.9 283.04999999999995 239.7Q281.09999999999997 238.5 281.09999999999997 235.2Q281.09999999999997 231.0 283.34999999999997 225.3Q285.59999999999997 219.6 288.44999999999993 213.89999999999998Q291.29999999999995 208.2 292.79999999999995 204.6Q294.9 200.4 298.04999999999995 193.65Q301.2 186.9 304.04999999999995 180.75Q306.9 174.60000000000002 308.09999999999997 172.2Q303.9 176.7 298.04999999999995 183.45Q292.2 190.2 287.09999999999997 196.5Q281.99999999999994 202.8 279.29999999999995 206.4Q278.4 207.6 277.79999999999995 207.6Q277.2 207.6 277.2 206.1Q277.2 203.7 278.7 201.6Q284.4 194.4 291.44999999999993 185.4Q298.49999999999994 176.4 304.19999999999993 168.75Q309.9 161.10000000000002 311.4 158.7Q314.7 158.10000000000002 321.15 156.9Q327.59999999999997 155.7 329.99999999999994 153.60000000000002Q330.9 152.7 331.79999999999995 152.7Q332.4 152.7 332.54999999999995 153.75Q332.69999999999993 154.8 331.79999999999995 156.0Q329.99999999999994 158.10000000000002 325.49999999999994 166.20000000000002Q320.99999999999994 174.3 316.04999999999995 184.05Q311.09999999999997 193.8 306.9 201.6Q302.7 209.7 299.7 217.2Q296.7 224.7 296.7 228.0Q296.7 232.2 300.9 232.2Q304.79999999999995 232.2 310.94999999999993 227.39999999999998Q317.09999999999997 222.6 323.4 215.85Q329.69999999999993 209.1 334.49999999999994 203.4Q335.99999999999994 201.6 338.24999999999994 199.05Q340.49999999999994 196.5 341.09999999999997 195.9Q341.69999999999993 196.5 341.69999999999993 198.0Q341.4 200.1 340.19999999999993 202.05Q338.99999999999994 204.0 337.79999999999995 205.5Q331.49999999999994 213.3 323.99999999999994 221.55Q316.49999999999994 229.8 307.49999999999994 235.35000000000002Q298.49999999999994 240.9 287.99999999999994 240.9Z" fill="#1a1a1a"/>
  <path d="M337.19999999999993 244.2Q335.99999999999994 244.2 337.19999999999993 241.8Q338.69999999999993 239.1 340.04999999999995 235.8Q341.3999999999999 232.5 342.8999999999999 228.6Q345.8999999999999 221.4 349.4999999999999 212.4Q353.0999999999999 203.4 356.3999999999999 194.85000000000002Q359.69999999999993 186.3 362.24999999999994 180.15Q364.79999999999995 174.0 365.69999999999993 172.2Q361.49999999999994 176.7 355.65 183.45Q349.79999999999995 190.2 344.69999999999993 196.5Q339.5999999999999 202.8 336.8999999999999 206.4Q335.99999999999994 207.6 335.3999999999999 207.6Q334.79999999999995 207.6 334.79999999999995 206.1Q334.79999999999995 203.7 336.29999999999995 201.6Q341.99999999999994 194.4 349.04999999999995 185.4Q356.0999999999999 176.4 361.79999999999995 168.75Q367.49999999999994 161.10000000000002 368.99999999999994 158.7Q372.29999999999995 158.10000000000002 378.74999999999994 156.9Q385.19999999999993 155.7 387.5999999999999 153.60000000000002Q388.49999999999994 152.7 389.3999999999999 152.7Q389.99999999999994 152.7 390.15 153.75Q390.29999999999995 154.8 389.3999999999999 156.0Q387.5999999999999 157.8 384.1499999999999 163.8Q380.69999999999993 169.8 376.49999999999994 177.60000000000002Q372.29999999999995 185.4 368.3999999999999 192.6Q371.3999999999999 188.1 376.3499999999999 181.95Q381.29999999999995 175.8 387.29999999999995 169.95000000000002Q393.29999999999995 164.10000000000002 399.44999999999993 160.20000000000002Q405.5999999999999 156.3 410.99999999999994 156.3Q414.8999999999999 156.3 417.5999999999999 157.95000000000002Q420.29999999999995 159.60000000000002 421.79999999999995 163.8Q422.69999999999993 165.9 422.69999999999993 168.60000000000002Q422.69999999999993 173.7 420.1499999999999 178.35Q417.5999999999999 183.0 416.3999999999999 185.4Q416.0999999999999 186.3 414.29999999999995 187.05Q412.49999999999994 187.8 412.79999999999995 186.6Q413.0999999999999 185.1 413.2499999999999 183.6Q413.3999999999999 182.1 413.3999999999999 180.3Q413.3999999999999 175.2 411.44999999999993 171.0Q409.49999999999994 166.8 404.3999999999999 166.8Q399.5999999999999 166.8 392.69999999999993 172.8Q385.79999999999995 178.8 378.8999999999999 186.6Q370.19999999999993 196.8 365.0999999999999 205.95Q359.99999999999994 215.1 356.69999999999993 223.8Q354.8999999999999 228.6 353.0999999999999 233.25Q351.29999999999995 237.9 350.3999999999999 240.6Q346.49999999999994 240.9 342.5999999999999 242.55Q338.69999999999993 244.2 337.19999999999993 244.2Z" fill="#1a1a1a"/>
  <path d="M457.79999999999995 240.9Q454.79999999999995 240.9 452.69999999999993 239.7Q450.59999999999997 238.5 450.59999999999997 235.2Q450.59999999999997 231.0 452.69999999999993 225.6Q454.79999999999995 220.2 457.49999999999994 214.95Q460.19999999999993 209.7 462.29999999999995 206.4Q451.79999999999995 217.5 440.4 227.4Q434.69999999999993 232.2 427.79999999999995 236.39999999999998Q420.9 240.6 413.09999999999997 240.6Q410.09999999999997 240.6 408.9 238.64999999999998Q407.69999999999993 236.7 407.69999999999993 234.0Q407.69999999999993 232.5 407.99999999999994 231.9Q409.49999999999994 220.2 415.49999999999994 207.6Q421.49999999999994 195.0 430.19999999999993 183.9Q438.9 172.8 447.9 165.9Q458.09999999999997 158.10000000000002 470.4 158.10000000000002H504.9Q506.4 158.10000000000002 506.4 159.3Q506.4 161.7 503.69999999999993 161.7Q500.69999999999993 161.7 497.69999999999993 165.45Q494.69999999999993 169.2 493.19999999999993 171.60000000000002Q491.09999999999997 174.9 486.59999999999997 182.7Q482.09999999999997 190.5 477.44999999999993 199.65Q472.79999999999995 208.8 469.49999999999994 216.60000000000002Q466.19999999999993 224.4 466.19999999999993 228.0Q466.19999999999993 232.2 470.4 232.2Q474.9 232.2 480.59999999999997 228.0Q486.29999999999995 223.8 492.15 217.65Q497.99999999999994 211.5 502.94999999999993 205.35Q507.9 199.2 510.9 195.6Q512.6999999999999 197.4 510.74999999999994 200.55Q508.79999999999995 203.7 507.29999999999995 205.5Q501.29999999999995 213.3 493.49999999999994 221.55Q485.69999999999993 229.8 476.54999999999995 235.35000000000002Q467.4 240.9 457.79999999999995 240.9ZM425.4 230.4Q428.99999999999994 230.4 435.44999999999993 225.15Q441.9 219.9 449.4 211.95Q456.9 204.0 463.5 195.15Q470.09999999999997 186.3 474.44999999999993 178.95000000000002Q478.79999999999995 171.60000000000002 478.79999999999995 167.7Q478.79999999999995 164.4 476.84999999999997 163.2Q474.9 162.0 471.9 162.0Q467.09999999999997 162.0 461.54999999999995 165.45Q455.99999999999994 168.9 452.69999999999993 172.2Q449.09999999999997 175.5 444.15 182.55Q439.19999999999993 189.6 434.4 198.0Q429.59999999999997 206.4 426.29999999999995 214.2Q422.99999999999994 222.0 422.99999999999994 226.8Q422.99999999999994 230.4 425.4 230.4Z" fill="#1a1a1a"/>
  <path d="M506.99999999999994 244.5Q505.79999999999995 244.5 506.99999999999994 241.8Q508.49999999999994 239.1 509.8499999999999 235.8Q511.19999999999993 232.5 512.6999999999999 228.6Q515.6999999999999 221.4 519.3 212.4Q522.9 203.4 526.2 194.85000000000002Q529.5 186.3 532.05 180.15Q534.5999999999999 174.0 535.5 172.2Q531.3 176.7 525.4499999999999 183.45Q519.5999999999999 190.2 514.4999999999999 196.5Q509.3999999999999 202.8 506.69999999999993 206.4Q505.79999999999995 207.6 505.19999999999993 207.6Q504.59999999999997 207.6 504.59999999999997 206.1Q504.59999999999997 203.7 506.09999999999997 201.6Q511.79999999999995 194.4 518.8499999999999 185.4Q525.9 176.4 531.5999999999999 168.75Q537.3 161.10000000000002 538.8 158.7Q542.0999999999999 158.10000000000002 548.55 156.9Q555.0 155.7 557.4 153.60000000000002Q558.3 152.7 559.1999999999999 152.7Q559.8 152.7 559.9499999999999 153.75Q560.0999999999999 154.8 559.1999999999999 156.0Q557.4 158.10000000000002 553.05 165.75Q548.6999999999999 173.4 543.75 182.7Q538.8 192.0 534.5999999999999 199.5Q538.1999999999999 194.7 542.3999999999999 190.2Q546.5999999999999 185.7 550.5 181.5Q554.0999999999999 177.9 560.3999999999999 172.5Q566.6999999999999 167.10000000000002 573.5999999999999 162.60000000000002Q580.5 158.10000000000002 585.5999999999999 157.5Q586.8 157.2 587.8499999999999 157.2Q588.9 157.2 589.5 157.2Q596.0999999999999 157.2 596.0999999999999 162.0Q596.0999999999999 165.60000000000002 592.1999999999999 171.60000000000002Q590.0999999999999 174.9 585.75 182.55Q581.4 190.2 577.05 199.05Q572.6999999999999 207.9 569.55 215.55Q566.4 223.2 566.4 226.8Q566.4 231.0 570.5999999999999 231.0Q575.6999999999999 231.0 581.8499999999999 225.9Q588.0 220.8 595.2 212.85000000000002Q602.4 204.9 609.5999999999999 195.9Q610.1999999999999 196.5 610.1999999999999 198.0Q610.1999999999999 200.1 608.8499999999999 202.05Q607.5 204.0 606.3 205.5Q603.3 209.4 598.3499999999999 215.25Q593.4 221.1 588.3 226.64999999999998Q583.1999999999999 232.2 579.0 235.5Q576.0 237.6 571.2 240.0Q566.4 242.4 561.5999999999999 242.4Q556.1999999999999 242.4 554.0999999999999 239.55Q552.0 236.7 552.0 232.5Q552.0 227.7 553.8 222.3Q555.5999999999999 216.9 557.8499999999999 211.95Q560.0999999999999 207.0 561.3 204.6Q566.6999999999999 194.1 571.1999999999999 184.8Q575.6999999999999 175.5 577.5 171.60000000000002Q578.4 169.8 578.4 168.60000000000002Q578.4 166.5 575.0999999999999 168.3Q571.8 170.10000000000002 567.15 173.70000000000002Q562.5 177.3 558.5999999999999 180.75Q554.6999999999999 184.2 553.5 185.4Q542.4 197.1 534.15 211.35Q525.9 225.6 520.1999999999999 240.6Q516.3 240.9 512.4 242.7Q508.49999999999994 244.5 506.99999999999994 244.5Z" fill="#1a1a1a"/>
  <path d="M647.1 242.1Q646.8000000000001 242.4 646.5 242.4Q645.6 242.4 645.6 239.7Q645.6 237.9 646.6500000000001 235.95Q647.7 234.0 650.7 233.7Q659.1 233.1 666.6 228.0Q674.1 222.9 679.8 215.85000000000002Q685.5 208.8 687.9000000000001 202.5L715.5 133.5Q721.2 119.4 728.5500000000001 106.2Q735.9000000000001 93.0 747.45 84.60000000000001Q759.0 76.20000000000002 776.7 76.20000000000002Q783.6 76.20000000000002 790.6500000000001 77.85000000000001Q797.7 79.5 802.5 83.10000000000001Q807.3000000000001 86.70000000000002 807.3000000000001 93.30000000000001Q807.3000000000001 94.20000000000002 807.3000000000001 95.10000000000001Q807.3000000000001 96.0 807.0 96.9Q806.1 101.70000000000002 801.75 106.50000000000001Q797.4000000000001 111.30000000000001 795.0 118.5Q794.7 120.60000000000001 792.3000000000001 120.60000000000001Q790.2 120.60000000000001 791.4000000000001 117.9Q793.8000000000001 114.30000000000001 795.1500000000001 109.35000000000001Q796.5 104.4 796.5 99.30000000000001Q796.5 91.5 792.9000000000001 85.5Q789.3000000000001 79.5 780.6 79.5Q772.8000000000001 79.5 764.7 84.0Q756.6 88.5 750.6 99.6L695.1 201.9Q687.3000000000001 216.3 680.8500000000001 222.45Q674.4000000000001 228.6 670.2 230.1H742.5Q756.9000000000001 230.1 769.2 229.2Q781.5 228.3 784.2 224.7Q787.2 220.5 787.2 215.7Q787.2 208.2 779.1 204.6Q778.2 204.0 778.2 203.4Q778.2 202.8 778.95 202.2Q779.7 201.6 780.9000000000001 202.2Q783.6 203.4 787.35 207.45Q791.1 211.5 794.4000000000001 216.15Q797.7 220.8 798.6 223.5Q799.5 226.2 799.5 228.9Q799.5 241.2 778.2 241.2Q761.4000000000001 241.2 742.2 240.0Q723.0 238.8 704.25 237.3Q685.5 235.8 669.0 235.2Q662.7 234.6 656.5500000000001 236.85Q650.4000000000001 239.1 647.1 242.1Z" fill="#1a1a1a"/>
  <path d="M859.8000000000001 240.9Q856.8000000000001 240.9 854.7 239.7Q852.6 238.5 852.6 235.2Q852.6 231.0 854.7 225.6Q856.8000000000001 220.2 859.5 214.95Q862.2 209.7 864.3000000000001 206.4Q853.8000000000001 217.5 842.4000000000001 227.4Q836.7 232.2 829.8000000000001 236.39999999999998Q822.9000000000001 240.6 815.1 240.6Q812.1 240.6 810.9000000000001 238.64999999999998Q809.7 236.7 809.7 234.0Q809.7 232.5 810.0000000000001 231.9Q811.5000000000001 220.2 817.5000000000001 207.6Q823.5000000000001 195.0 832.2 183.9Q840.9000000000001 172.8 849.9000000000001 165.9Q860.1 158.10000000000002 872.4000000000001 158.10000000000002H906.9000000000001Q908.4000000000001 158.10000000000002 908.4000000000001 159.3Q908.4000000000001 161.7 905.7 161.7Q902.7 161.7 899.7 165.45Q896.7 169.2 895.2 171.60000000000002Q893.1 174.9 888.6 182.7Q884.1 190.5 879.45 199.65Q874.8000000000001 208.8 871.5 216.60000000000002Q868.2 224.4 868.2 228.0Q868.2 232.2 872.4000000000001 232.2Q876.9000000000001 232.2 882.6000000000001 228.0Q888.3000000000001 223.8 894.1500000000001 217.65Q900.0000000000001 211.5 904.95 205.35Q909.9000000000001 199.2 912.9000000000001 195.6Q914.7 197.4 912.75 200.55Q910.8000000000001 203.7 909.3000000000001 205.5Q903.3000000000001 213.3 895.5 221.55Q887.7 229.8 878.5500000000001 235.35000000000002Q869.4000000000001 240.9 859.8000000000001 240.9ZM827.4000000000001 230.4Q831.0000000000001 230.4 837.45 225.15Q843.9000000000001 219.9 851.4000000000001 211.95Q858.9000000000001 204.0 865.5 195.15Q872.1 186.3 876.45 178.95000000000002Q880.8000000000001 171.60000000000002 880.8000000000001 167.7Q880.8000000000001 164.4 878.8500000000001 163.2Q876.9000000000001 162.0 873.9000000000001 162.0Q869.1 162.0 863.5500000000001 165.45Q858.0000000000001 168.9 854.7 172.2Q851.1 175.5 846.1500000000001 182.55Q841.2 189.6 836.4000000000001 198.0Q831.6 206.4 828.3000000000001 214.2Q825.0000000000001 222.0 825.0000000000001 226.8Q825.0000000000001 230.4 827.4000000000001 230.4Z" fill="#1a1a1a"/>
  <path d="M909.0000000000001 244.2Q907.8000000000001 244.2 909.0000000000001 241.8Q910.5000000000001 239.1 911.8500000000001 235.8Q913.2000000000002 232.5 914.7000000000002 228.6Q917.7000000000002 221.4 921.3000000000002 212.4Q924.9000000000001 203.4 928.2 194.85000000000002Q931.5000000000001 186.3 934.0500000000002 180.15Q936.6000000000001 174.0 937.5000000000001 172.2Q933.3000000000001 176.7 927.45 183.45Q921.6000000000001 190.2 916.5000000000001 196.5Q911.4000000000001 202.8 908.7000000000002 206.4Q907.8000000000001 207.6 907.2000000000002 207.6Q906.6000000000001 207.6 906.6000000000001 206.1Q906.6000000000001 203.7 908.1000000000001 201.6Q913.8000000000001 194.4 920.8500000000001 185.4Q927.9000000000001 176.4 933.6000000000001 168.75Q939.3000000000001 161.10000000000002 940.8000000000001 158.7Q944.1000000000001 158.10000000000002 950.5500000000002 156.9Q957.0000000000001 155.7 959.4000000000001 153.60000000000002Q960.3000000000001 152.7 961.2000000000002 152.7Q961.8000000000001 152.7 961.95 153.75Q962.1000000000001 154.8 961.2000000000002 156.0Q959.4000000000001 157.8 955.95 163.8Q952.5000000000001 169.8 948.3000000000002 177.60000000000002Q944.1000000000001 185.4 940.2000000000002 192.6Q943.2000000000002 188.1 948.1500000000001 181.95Q953.1000000000001 175.8 959.1000000000001 169.95000000000002Q965.1000000000001 164.10000000000002 971.2500000000001 160.20000000000002Q977.4000000000001 156.3 982.8000000000001 156.3Q986.7000000000002 156.3 989.4000000000001 157.95000000000002Q992.1000000000001 159.60000000000002 993.6000000000001 163.8Q994.5000000000001 165.9 994.5000000000001 168.60000000000002Q994.5000000000001 173.7 991.95 178.35Q989.4000000000001 183.0 988.2000000000002 185.4Q987.9000000000001 186.3 986.1000000000001 187.05Q984.3000000000001 187.8 984.6000000000001 186.6Q984.9000000000001 185.1 985.0500000000002 183.6Q985.2000000000002 182.1 985.2000000000002 180.3Q985.2000000000002 175.2 983.2500000000001 171.0Q981.3000000000001 166.8 976.2000000000002 166.8Q971.4000000000001 166.8 964.5000000000001 172.8Q957.6000000000001 178.8 950.7000000000002 186.6Q942.0000000000001 196.8 936.9000000000001 205.95Q931.8000000000001 215.1 928.5000000000001 223.8Q926.7000000000002 228.6 924.9000000000001 233.25Q923.1000000000001 237.9 922.2000000000002 240.6Q918.3000000000001 240.9 914.4000000000001 242.55Q910.5000000000001 244.2 909.0000000000001 244.2Z" fill="#1a1a1a"/>
  <path d="M1001.4000000000001 242.7Q997.5000000000001 242.7 992.1000000000001 241.35Q986.7000000000002 240.0 986.7000000000002 234.6Q986.7000000000002 232.5 987.6000000000001 229.8Q988.5000000000001 227.1 989.4000000000001 225.0Q992.4000000000001 217.2 995.7 209.1Q999.0000000000001 201.0 1002.6000000000001 192.6Q998.7000000000002 197.1 995.2500000000002 200.85Q991.8000000000002 204.6 990.3000000000002 206.4Q989.4000000000001 207.6 988.8000000000002 207.6Q988.2000000000002 207.6 988.2000000000002 206.1Q988.2000000000002 203.7 989.7000000000002 201.6Q993.9000000000001 196.2 999.3000000000002 190.2Q1004.7000000000002 184.2 1009.8000000000002 177.6Q1022.4000000000001 151.2 1038.0 126.45Q1053.6000000000001 101.70000000000002 1073.1000000000001 82.5Q1079.1000000000001 76.80000000000001 1086.6000000000001 70.80000000000001Q1094.1000000000001 64.80000000000001 1102.65 60.60000000000001Q1111.2 56.400000000000006 1119.6000000000001 56.400000000000006Q1124.1000000000001 56.400000000000006 1127.8500000000001 58.80000000000001Q1131.6000000000001 61.20000000000002 1131.9 66.30000000000001V75.0Q1131.9 76.20000000000002 1130.1000000000001 76.20000000000002Q1129.2 76.20000000000002 1129.2 75.6Q1129.2 70.80000000000001 1125.0 69.15Q1120.8000000000002 67.5 1116.6000000000001 67.5Q1100.1000000000001 67.5 1086.9 76.05Q1073.7 84.6 1063.5 98.25Q1053.3000000000002 111.9 1045.2000000000003 128.25Q1037.1000000000001 144.60000000000002 1030.65 160.35000000000002Q1024.2 176.1 1018.5000000000001 188.4Q1018.5000000000001 188.4 1018.5000000000001 189.0Q1018.5000000000001 189.6 1018.8000000000002 189.6Q1019.1000000000001 189.6 1023.7500000000001 184.95Q1028.4 180.3 1035.4500000000003 174.0Q1042.5000000000002 167.7 1050.3000000000002 163.05Q1058.1000000000001 158.4 1064.7 158.4Q1068.0000000000002 158.4 1068.9 160.65Q1069.8000000000002 162.9 1069.8000000000002 165.60000000000002V168.3Q1068.3000000000002 179.4 1062.15 192.3Q1056.0000000000002 205.2 1046.5500000000002 216.75Q1037.1000000000001 228.3 1025.5500000000002 235.5Q1014.0000000000001 242.7 1001.4000000000001 242.7ZM1006.2000000000002 237.6Q1011.0000000000001 237.6 1016.5500000000002 233.85Q1022.1000000000001 230.1 1025.1000000000001 227.1Q1028.7 223.8 1033.8000000000002 216.75Q1038.9 209.7 1043.7000000000003 201.3Q1048.5000000000002 192.9 1051.8000000000002 185.10000000000002Q1055.1000000000001 177.3 1055.1000000000001 172.5Q1055.1000000000001 171.0 1054.5 169.8Q1053.9 168.60000000000002 1052.4 168.60000000000002Q1049.7 168.60000000000002 1045.3500000000001 171.9Q1041.0000000000002 175.2 1036.0500000000002 179.85Q1031.1000000000001 184.5 1027.0500000000002 188.85Q1023.0000000000001 193.2 1021.2000000000002 195.3Q1017.9000000000001 198.9 1012.8000000000002 205.8Q1007.7000000000002 212.7 1003.6500000000001 219.75Q999.6000000000001 226.8 999.6000000000001 231.6Q999.6000000000001 237.6 1006.2000000000002 237.6Z" fill="#1a1a1a"/>
  <path d="M1131.9 125.4Q1127.7000000000003 125.4 1125.9 122.7Q1124.7000000000003 121.2 1124.7000000000003 118.80000000000001Q1124.7000000000003 114.0 1129.2000000000003 111.0Q1132.5000000000002 109.20000000000002 1135.2000000000003 109.20000000000002Q1139.7000000000003 109.20000000000002 1141.5000000000002 111.9Q1142.7000000000003 113.4 1142.7000000000003 115.80000000000001Q1142.7000000000003 120.60000000000001 1137.9 123.60000000000001Q1135.2000000000003 125.4 1131.9 125.4ZM1079.7000000000003 240.9Q1076.7000000000003 240.9 1074.7500000000002 239.7Q1072.8000000000002 238.5 1072.8000000000002 235.2Q1072.8000000000002 231.0 1075.0500000000002 225.3Q1077.3000000000002 219.6 1080.15 213.89999999999998Q1083.0000000000002 208.2 1084.5000000000002 204.6Q1086.6000000000001 200.4 1089.75 193.65Q1092.9 186.9 1095.75 180.75Q1098.6000000000001 174.60000000000002 1099.8000000000002 172.2Q1095.6000000000001 176.7 1089.75 183.45Q1083.9 190.2 1078.8000000000002 196.5Q1073.7000000000003 202.8 1071.0000000000002 206.4Q1070.1000000000001 207.6 1069.5000000000002 207.6Q1068.9 207.6 1068.9 206.1Q1068.9 203.7 1070.4 201.6Q1076.1000000000001 194.4 1083.15 185.4Q1090.2000000000003 176.4 1095.9 168.75Q1101.6000000000001 161.10000000000002 1103.1000000000001 158.7Q1106.4 158.10000000000002 1112.8500000000001 156.9Q1119.3000000000002 155.7 1121.7000000000003 153.60000000000002Q1122.6000000000001 152.7 1123.5000000000002 152.7Q1124.1000000000001 152.7 1124.25 153.75Q1124.4 154.8 1123.5000000000002 156.0Q1121.7000000000003 158.10000000000002 1117.2000000000003 166.20000000000002Q1112.7000000000003 174.3 1107.7500000000002 184.05Q1102.8000000000002 193.8 1098.6000000000001 201.6Q1094.4 209.7 1091.4 217.2Q1088.4 224.7 1088.4 228.0Q1088.4 232.2 1092.6000000000001 232.2Q1096.5000000000002 232.2 1102.65 227.39999999999998Q1108.8000000000002 222.6 1115.1000000000001 215.85Q1121.4 209.1 1126.2000000000003 203.4Q1127.7000000000003 201.6 1129.9500000000003 199.05Q1132.2000000000003 196.5 1132.8000000000002 195.9Q1133.4 196.5 1133.4 198.0Q1133.1000000000001 200.1 1131.9 202.05Q1130.7000000000003 204.0 1129.5000000000002 205.5Q1123.2000000000003 213.3 1115.7000000000003 221.55Q1108.2000000000003 229.8 1099.2000000000003 235.35000000000002Q1090.2000000000003 240.9 1079.7000000000003 240.9Z" fill="#1a1a1a"/>
</svg>