<svg width="3262" height="809" viewBox="0 0 3262 809" fill="none" xmlns="http://www.w3.org/2000/svg">
<g clip-path="url(#clip0_2522_6010)">
<path d="M331.178 268.073C346.892 267.449 352.764 272.836 356.266 287.875C355.826 290.101 355.243 292.296 354.523 294.447C352.959 299.017 350.577 304.564 348.343 308.956C327.143 350.652 305.468 392.505 282.227 433.057C281.05 435.111 275.224 437.826 272.92 438.951C254.845 439.817 242.632 428.971 250.084 410.255C253.765 401.01 260.186 390.164 265.098 381.352C284.412 346.703 302.153 311.396 320.137 276.104C322.266 271.941 327.023 269.814 331.178 268.073Z" fill="black"/>
<path d="M2037.54 0H2065.45C2102.59 5.13174 2141.75 17.7813 2136.76 64.0935C2133.59 93.4873 2098.94 125.753 2076.37 143.384C2032.67 174.253 1973.07 201.189 1924.09 223.95L1741.47 307.614C1626.4 360.213 1510.95 411.979 1395.14 462.906C1316.46 497.854 1236.92 530.825 1156.59 561.789C1148.85 578.082 1153.03 596.57 1158.35 612.883C1164.07 630.419 1181.73 645.558 1198.65 652.399C1244.08 670.768 1295.87 682.477 1343.83 691.871C1376.66 698.301 1411.14 698.779 1444.37 701.145C1542.12 706.879 1637.51 699.077 1734.86 690.06C1800.24 684.304 1865.53 677.519 1930.69 669.708C1951.28 642.551 1970.14 615.303 1990.24 588.289C1955.26 589.885 1872.04 595.293 1890.57 536.6C1868.04 546.559 1834.24 566.497 1813.54 574.326C1778.1 587.731 1700.16 607.297 1662.84 594.087C1655.05 591.328 1646.72 585.022 1643.65 577.328C1640.01 568.222 1640.99 557.276 1645.01 548.511C1651.25 534.932 1662.27 518.943 1671.35 507.086C1639.71 529.528 1563.39 589.908 1527.26 583.844C1518.8 582.468 1511.25 577.704 1506.37 570.648C1492.69 550.768 1516.27 518.804 1522.15 499.365C1523.88 493.655 1525.92 488.279 1527.55 482.373C1496.91 472.873 1510.47 435.606 1538.29 443.206C1588.6 456.947 1562.46 508.401 1548.83 539.472C1610.29 510.409 1665.74 453.502 1727.43 423.192C1747.53 413.314 1771.35 428.46 1763.29 452.192C1753.25 474.031 1731.14 496.443 1715.66 515.283C1704.27 528.97 1693.92 543.493 1684.7 558.73C1720.05 559.434 1755.4 550.628 1791.6 539.927C1830.97 528.286 1905.5 466.51 1946.84 494.662C1965.95 507.68 1940.95 535.006 1931.12 546.609C1954.74 550.679 1993.76 548.554 2018.61 547.097C2052.5 497.348 2085.98 447.314 2119.04 397.002C2063.73 397.608 2008.44 398.68 1953.15 400.219C1938.76 400.666 1924.37 401.378 1910 402.355C1900.97 402.94 1892.22 403.845 1883.13 403.643C1858.78 403.101 1857.97 366.916 1880.38 364.475C1908.81 361.378 1938.35 360.694 1966.99 359.851C2026.46 358.215 2085.95 357.206 2145.44 356.826L2268.02 168.239C2279.54 150.457 2290.97 132.616 2302.31 114.714C2308.94 104.218 2322.4 77.6162 2334.56 75.1819C2339.89 74.1506 2345.41 75.2868 2349.89 78.3385C2369.53 91.6296 2350.9 112.797 2342.46 126.25C2330.46 145.204 2318.34 164.084 2306.1 182.889L2193.87 356.072L2664.54 354.157L2810.68 354.461L2858.06 354.909C2866.67 355.005 2878.92 353.196 2886.45 357.817C2903.17 368.088 2896.22 394.378 2876.36 394.6C2855.81 395.152 2835.4 394.723 2814.92 394.586L2699.91 394.156L2352.04 395.011L2228.5 395.923C2209.74 396.085 2185.73 395.532 2167.38 396.437C2134.87 445.938 2102.02 495.214 2068.83 544.262C2170.99 539.217 2272.75 533.471 2375.06 531.479C2477.7 529.479 3219.45 527.328 3255.45 560.084C3259.3 563.589 3260.89 568.916 3262 573.831V574.464C3259.2 586.576 3253.25 595.59 3239.22 593.853C3217.61 591.179 3196.26 588.168 3174.54 586.212C3128.53 582.388 3082.43 579.748 3036.28 578.294C2799.18 569.753 2561.88 567.859 2324.68 572.615C2263.86 574.278 2203.08 576.824 2142.34 580.252C2109.08 582.081 2073.42 584.942 2040.41 586.068C2022.38 611.983 2004.1 637.725 1985.57 663.288C2002.01 661.109 2041.12 652.797 2053.14 661.892C2057 664.848 2059.52 669.234 2060.12 674.063C2063.72 701.371 2025.8 698.2 2007.6 700.884C1990.34 703.43 1971.4 705.487 1954.01 707.21C1953.38 707.269 1952.74 707.32 1952.11 707.363C1933.05 731.9 1913.15 755.773 1892.44 778.94C1882.49 790.155 1871.87 805.391 1857.21 809H1856.33C1841.12 806.057 1830.94 792.954 1839.68 778.867C1845.14 770.077 1855.02 760.502 1862.02 752.678C1873.43 740.051 1884.58 727.193 1895.46 714.112C1858.58 719.653 1809.46 723.24 1772.02 726.76C1706.08 733.614 1639.96 738.673 1573.74 741.931C1497.1 745.003 1411.88 742.284 1335.79 731.092C1306.33 726.147 1277.11 718.059 1248.26 710.733C1171.06 691.128 1115.38 667.571 1112.17 577.703C1080.94 588.256 1049.22 598.196 1017.14 605.903C1003.42 609.199 979.866 613.008 970.69 598.748C954.518 573.615 995.915 549.525 1013.26 537.566C994.794 542.402 932.249 561.24 917.31 560.587C912.918 560.395 907.336 559.406 904.298 555.895C900.313 551.291 898.031 545.115 898.635 539.016C899.103 534.275 901.676 528.929 905.501 525.988C912.852 520.337 1061.51 483.548 1080.78 479.513C1086.8 478.25 1095.06 476.11 1101.19 477.02C1107.32 477.927 1112.85 481.019 1116.45 486.118C1119.73 490.774 1121.44 496.098 1120.3 501.771C1116.52 520.534 1078.83 541.104 1063.42 551.453C1085.3 544.893 1107.42 536.98 1128.95 529.341C1132.64 523.68 1136.5 518.127 1140.52 512.688C1172.22 470.28 1230.83 423.119 1273.09 389.341C1406.76 280.858 1551.35 186.552 1704.51 107.941C1749.53 85.0205 1797.62 61.7089 1844.9 43.7637C1892.33 25.7592 1946.54 14.0743 1996.69 4.94214C2009.05 2.69066 2024.72 1.83799 2037.54 0ZM1206.01 499.48L1250.74 481.313C1422.45 408.016 1593.1 332.259 1762.63 254.062L1916.32 183.46C1956.45 164.786 1997.66 145.359 2035.75 122.692C2056.41 110.4 2075.98 92.4014 2090.44 73.1577C2116.35 38.6539 2058.79 38.6636 2038.8 40.4275C1987.9 44.4227 1911.36 62.0149 1863.1 79.6844C1817.62 96.3393 1762.47 123.152 1719.14 145.357C1578.2 217.91 1444.71 304.12 1320.61 402.747C1285.22 430.475 1237.78 467.923 1206.01 499.48Z" fill="black"/>
<path d="M1315.39 239.285C1311.22 230.909 1306.89 221.963 1297.36 219.037C1266.63 209.598 1231.67 204.506 1199.83 199.723C1148.33 192.185 1096.75 185.281 1045.08 179.013C857.403 156.188 669.571 134.654 481.599 114.413L312.351 96.4399C292.89 94.4686 273.347 92.3052 253.796 91.3698C243.732 90.8883 230.998 89.9685 225.929 79.4883C221.064 69.4306 225.412 56.8601 235.807 52.2931C238.339 51.1548 241.09 50.5841 243.867 50.6209C272.678 50.7453 326.221 57.5896 356.523 60.7722L560.612 82.803L922.222 123.873C1011.76 134.114 1101.16 145.454 1190.42 157.891C1217.49 161.816 1288.78 172.259 1311.89 181.699C1329.44 188.794 1343.39 202.677 1350.56 220.199C1356.13 233.77 1356.15 246.471 1350.4 259.959C1345.99 270.066 1339.28 278.998 1330.8 286.038C1307.41 305.4 1258.38 327.66 1229.64 340.482C1180.06 362.241 1130.05 382.987 1079.62 402.708C766.126 527.231 442.319 636.29 107.961 687.099C89.3091 689.934 23.2881 702.641 11.7795 697.742C6.51729 695.501 2.96928 691.032 0.993414 685.776C0.64114 684.835 0.30992 683.886 0 682.93V675.805C2.12054 670.375 5.88057 662.906 11.6455 661.498C31.4164 656.669 57.2985 654.279 77.3975 651.321C105.184 647.226 132.924 642.815 160.611 638.089C226.616 626.574 292.248 613.005 357.408 597.402C447.063 575.947 535.931 551.326 623.845 523.586C801.77 466.55 977.312 402.333 1150.04 331.092C1196.15 311.902 1244.53 291.532 1288.15 266.896C1298.46 261.072 1309.53 254.124 1314.12 242.751C1314.57 241.608 1315 240.452 1315.39 239.285Z" fill="black"/>
</g>
<defs>
<clipPath id="clip0_2522_6010">
<rect width="3262" height="809" fill="white"/>
</clipPath>
</defs>
</svg>
