<svg width="1600" height="900" viewBox="0 0 1600 900" fill="none" xmlns="http://www.w3.org/2000/svg">
<rect width="1600" height="900" fill="#D82036"/>
<path fill-rule="evenodd" clip-rule="evenodd" d="M470.357 380.536C467.164 380.536 464.043 381.085 461.113 382.119L496.183 434.709C496.489 435.169 496.781 435.635 497.057 436.108H527.559C527.262 435.593 526.947 435.085 526.614 434.586L498.819 392.907C493.666 385.178 484.991 380.536 475.702 380.536H470.357ZM527.561 463.894H497.201C496.916 464.393 496.614 464.885 496.296 465.37L461.702 518.086C464.46 518.99 467.377 519.468 470.357 519.468H475.702C484.991 519.468 493.666 514.826 498.819 507.098L526.614 465.418C526.947 464.918 527.263 464.41 527.561 463.894ZM463.648 436.108C463.351 435.593 463.036 435.085 462.703 434.586L441.075 402.154L419.454 434.591C419.122 435.089 418.808 435.594 418.511 436.108H463.648ZM418.51 463.894H463.65C463.352 464.41 463.037 464.918 462.703 465.418L441.075 497.851L419.454 465.414C419.121 464.915 418.807 464.408 418.51 463.894ZM513.688 365.12C508.534 357.392 499.859 352.75 490.57 352.75H455.485C446.194 352.75 437.518 357.394 432.364 365.125L386.06 434.591C379.839 443.923 379.839 456.081 386.06 465.414L432.364 534.88C437.518 542.611 446.194 547.255 455.485 547.255H490.57C499.859 547.255 508.534 542.613 513.688 534.884L560.012 465.418C566.237 456.084 566.237 443.921 560.012 434.586L513.688 365.12Z" fill="white"/>
<path d="M638.144 500.157C631.564 500.157 625.429 499.134 619.738 497.089C614.136 495.044 609.424 491.799 605.6 487.353C601.866 482.907 599.509 477.172 598.531 470.148H618.004C618.804 473.171 620.271 475.616 622.405 477.483C624.539 479.262 627.073 480.551 630.008 481.351C633.031 482.151 636.187 482.552 639.477 482.552C641.967 482.552 644.412 482.24 646.813 481.618C649.214 480.995 651.17 479.928 652.681 478.417C654.282 476.905 655.082 474.86 655.082 472.282C655.082 470.326 654.638 468.725 653.748 467.48C652.948 466.235 651.748 465.257 650.147 464.546C648.636 463.746 646.768 463.034 644.546 462.412C642.678 461.878 640.722 461.434 638.677 461.078C636.721 460.723 634.765 460.278 632.809 459.744C630.941 459.211 629.119 458.589 627.34 457.877C623.961 456.988 620.716 455.921 617.604 454.676C614.492 453.342 611.735 451.698 609.335 449.741C606.934 447.696 605.022 445.162 603.599 442.139C602.266 439.116 601.599 435.47 601.599 431.202C601.599 426.579 602.355 422.666 603.866 419.465C605.467 416.264 607.556 413.641 610.135 411.596C612.802 409.462 615.737 407.817 618.938 406.661C622.228 405.505 625.517 404.705 628.807 404.261C632.097 403.816 635.209 403.594 638.144 403.594C644.279 403.594 649.792 404.661 654.682 406.795C659.572 408.929 663.574 412.13 666.686 416.398C669.798 420.666 671.576 426.045 672.021 432.536H653.482C653.126 429.869 652.148 427.69 650.547 426.001C648.947 424.311 646.902 423.066 644.412 422.266C642.011 421.466 639.3 421.066 636.276 421.066C634.32 421.066 632.408 421.244 630.541 421.599C628.674 421.955 626.985 422.533 625.473 423.333C624.05 424.045 622.894 425.023 622.005 426.267C621.205 427.512 620.805 429.024 620.805 430.802C620.805 432.58 621.294 434.137 622.272 435.47C623.25 436.715 624.673 437.827 626.54 438.805C628.496 439.694 630.764 440.539 633.342 441.339C636.01 442.228 638.81 442.939 641.745 443.473C644.679 444.006 647.48 444.718 650.147 445.607C653.526 446.496 656.683 447.563 659.617 448.808C662.551 449.964 665.13 451.475 667.353 453.342C669.576 455.121 671.309 457.433 672.554 460.278C673.799 463.034 674.422 466.458 674.422 470.548C674.422 475.972 673.399 480.595 671.354 484.419C669.398 488.153 666.686 491.176 663.218 493.488C659.839 495.8 655.971 497.489 651.614 498.556C647.258 499.623 642.767 500.157 638.144 500.157Z" fill="#F2F8F8"/>
<path d="M712.721 500.024C705.519 500.024 699.339 498.556 694.182 495.622C689.114 492.688 685.246 488.553 682.578 483.218C679.911 477.794 678.577 471.437 678.577 464.146C678.577 456.766 679.955 450.364 682.712 444.94C685.468 439.427 689.425 435.159 694.582 432.136C699.828 429.113 706.141 427.601 713.521 427.601C719.212 427.601 724.28 428.624 728.726 430.669C733.172 432.714 736.728 435.648 739.396 439.472C742.152 443.295 743.753 448.007 744.197 453.609H725.925C725.125 450.497 723.569 448.23 721.257 446.807C719.034 445.384 716.367 444.673 713.254 444.673C709.253 444.673 706.052 445.651 703.651 447.607C701.34 449.564 699.65 452.053 698.583 455.076C697.605 458.1 697.116 461.123 697.116 464.146C697.116 467.436 697.65 470.548 698.717 473.482C699.784 476.327 701.473 478.684 703.785 480.551C706.186 482.329 709.298 483.218 713.121 483.218C716.322 483.218 719.123 482.507 721.524 481.084C723.924 479.573 725.481 477.261 726.192 474.149H744.864C744.42 479.928 742.686 484.73 739.663 488.553C736.64 492.377 732.772 495.267 728.059 497.223C723.435 499.09 718.323 500.024 712.721 500.024Z" fill="#F2F8F8"/>
<path d="M749.469 499.09V404.661H768.141V436.937C770.186 434.537 772.454 432.669 774.943 431.336C777.522 430.002 780.101 429.068 782.679 428.535C785.347 427.912 787.792 427.601 790.015 427.601C796.595 427.601 801.752 429.068 805.486 432.003C809.221 434.937 811.888 438.894 813.489 443.873C815.089 448.852 815.89 454.321 815.89 460.278V499.09H797.217V462.945C797.217 460.811 796.995 458.677 796.55 456.543C796.195 454.409 795.528 452.453 794.55 450.675C793.572 448.808 792.193 447.341 790.415 446.274C788.637 445.118 786.28 444.54 783.346 444.54C780.59 444.54 778.233 445.118 776.277 446.274C774.321 447.43 772.721 448.986 771.476 450.942C770.32 452.809 769.475 454.899 768.942 457.21C768.408 459.522 768.141 461.834 768.141 464.146V499.09H749.469Z" fill="#F2F8F8"/>
<path d="M855.698 500.024C848.318 500.024 842.049 498.556 836.892 495.622C831.735 492.688 827.778 488.553 825.022 483.218C822.265 477.794 820.887 471.481 820.887 464.279C820.887 456.988 822.31 450.631 825.155 445.207C828 439.694 832.002 435.381 837.159 432.269C842.405 429.157 848.584 427.601 855.698 427.601C861.033 427.601 865.701 428.49 869.702 430.269C873.792 432.047 877.216 434.537 879.972 437.738C882.817 440.939 884.907 444.673 886.241 448.941C887.663 453.12 888.33 457.655 888.241 462.545C888.241 463.79 888.197 464.991 888.108 466.146C888.019 467.302 887.841 468.458 887.574 469.614H839.426C839.693 472.282 840.449 474.727 841.693 476.95C842.938 479.173 844.672 480.951 846.895 482.285C849.207 483.53 852.052 484.152 855.431 484.152C857.654 484.152 859.699 483.93 861.566 483.485C863.434 482.952 865.034 482.151 866.368 481.084C867.702 480.017 868.635 478.773 869.169 477.35H887.574C886.418 482.596 884.24 486.908 881.039 490.287C877.927 493.666 874.148 496.156 869.702 497.756C865.256 499.268 860.588 500.024 855.698 500.024ZM839.826 456.543H870.369C870.28 454.143 869.658 451.92 868.502 449.875C867.435 447.741 865.79 446.051 863.567 444.807C861.433 443.473 858.676 442.806 855.298 442.806C851.919 442.806 849.074 443.473 846.762 444.807C844.539 446.14 842.849 447.874 841.693 450.008C840.626 452.053 840.004 454.232 839.826 456.543Z" fill="#F2F8F8"/>
<path d="M893.602 499.09V428.802H910.408L912.008 436.671C913.786 434.181 915.743 432.314 917.877 431.069C920.099 429.735 922.322 428.846 924.545 428.401C926.768 427.957 928.813 427.735 930.681 427.735C934.86 427.735 938.55 428.535 941.751 430.135C944.952 431.736 947.53 434.314 949.486 437.871C951.354 435.292 953.399 433.292 955.622 431.869C957.845 430.358 960.201 429.291 962.69 428.668C965.18 428.046 967.714 427.735 970.293 427.735C975.717 427.735 980.074 428.89 983.364 431.202C986.742 433.425 989.188 436.537 990.699 440.539C992.3 444.54 993.1 449.208 993.1 454.543V499.09H974.427V459.478C974.427 457.877 974.339 456.232 974.161 454.543C973.983 452.853 973.538 451.253 972.827 449.741C972.205 448.23 971.226 446.985 969.893 446.007C968.648 445.029 966.87 444.54 964.558 444.54C962.335 444.54 960.468 445.029 958.956 446.007C957.444 446.985 956.244 448.319 955.355 450.008C954.466 451.609 953.799 453.387 953.354 455.343C952.999 457.21 952.821 459.122 952.821 461.078V499.09H934.148V459.344C934.148 457.833 934.059 456.232 933.882 454.543C933.704 452.853 933.304 451.253 932.681 449.741C932.059 448.23 931.036 446.985 929.614 446.007C928.28 445.029 926.413 444.54 924.012 444.54C920.722 444.54 918.188 445.518 916.409 447.474C914.72 449.341 913.609 451.609 913.075 454.276C912.542 456.855 912.275 459.255 912.275 461.478V499.09H893.602Z" fill="#F2F8F8"/>
<path d="M1022.78 500.024C1019.58 500.024 1016.47 499.623 1013.45 498.823C1010.51 497.934 1007.89 496.6 1005.58 494.822C1003.27 493.044 1001.44 490.821 1000.11 488.153C998.777 485.486 998.11 482.374 998.11 478.817C998.11 474.016 999.088 470.192 1001.04 467.347C1003 464.413 1005.62 462.19 1008.91 460.678C1012.2 459.167 1015.98 458.144 1020.25 457.61C1024.61 457.077 1029.1 456.81 1033.72 456.81H1043.86C1043.86 454.232 1043.37 451.964 1042.39 450.008C1041.5 447.963 1040.12 446.407 1038.26 445.34C1036.39 444.184 1033.99 443.606 1031.05 443.606C1029.19 443.606 1027.36 443.873 1025.59 444.406C1023.9 444.851 1022.47 445.518 1021.32 446.407C1020.16 447.296 1019.41 448.452 1019.05 449.875H1000.11C1000.64 445.962 1001.89 442.628 1003.84 439.872C1005.8 437.026 1008.25 434.714 1011.18 432.936C1014.11 431.158 1017.32 429.869 1020.78 429.068C1024.34 428.179 1027.99 427.735 1031.72 427.735C1041.95 427.735 1049.5 430.669 1054.39 436.537C1059.28 442.317 1061.73 450.542 1061.73 461.212V499.09H1044.92L1044.66 490.02C1042.43 493.133 1039.9 495.4 1037.06 496.823C1034.3 498.245 1031.63 499.134 1029.05 499.49C1026.47 499.846 1024.38 500.024 1022.78 500.024ZM1027.05 485.219C1030.16 485.219 1033.01 484.597 1035.59 483.352C1038.17 482.107 1040.21 480.418 1041.72 478.284C1043.24 476.15 1043.99 473.749 1043.99 471.081V469.347H1031.19C1029.32 469.347 1027.5 469.436 1025.72 469.614C1024.03 469.792 1022.47 470.148 1021.05 470.681C1019.72 471.126 1018.65 471.882 1017.85 472.949C1017.05 474.016 1016.65 475.438 1016.65 477.217C1016.65 478.995 1017.09 480.506 1017.98 481.751C1018.96 482.907 1020.25 483.796 1021.85 484.419C1023.45 484.952 1025.18 485.219 1027.05 485.219Z" fill="#F2F8F8"/>
<path d="M1072.31 499.09V404.661H1091.39V443.873H1104.72L1129.27 404.661H1151.14L1120.73 450.542L1151.14 499.09H1128.73L1105.52 461.478H1091.39V499.09H1072.31Z" fill="#F2F8F8"/>
<path d="M1152.59 499.09V428.802H1171.26V499.09H1152.59Z" fill="#F2F8F8"/>
<path d="M1211.27 499.09C1205.4 499.09 1200.47 498.379 1196.47 496.956C1192.55 495.533 1189.58 493.133 1187.53 489.754C1185.57 486.286 1184.6 481.573 1184.6 475.616V445.473H1174.19V428.802H1184.6V409.996H1203.27V428.802H1218.61V445.473H1203.27V472.949C1203.27 475.883 1203.8 478.195 1204.87 479.884C1205.94 481.573 1208.34 482.418 1212.07 482.418H1217.94V499.09H1211.27Z" fill="#F2F8F8"/>
</svg>
