<svg width="1600" height="900" viewBox="0 0 1600 900" fill="none" xmlns="http://www.w3.org/2000/svg">
<rect width="1600" height="900" fill="#2237AF"/>
<path fill-rule="evenodd" clip-rule="evenodd" d="M410.852 385L459.888 385.052L459.864 408.176L420.406 408.134L395.866 432.623L395.83 467.291L420.318 491.831L459.775 491.872L459.751 514.997L410.715 514.945L372.695 476.845L372.752 423.02L410.852 385ZM536.241 515L487.206 514.948L487.23 491.824L526.687 491.866L551.227 467.377L551.264 432.709L526.776 408.169L487.319 408.128L487.343 385.003L536.379 385.055L574.398 423.155L574.342 476.98L536.241 515ZM435.137 461.559H511.972V438.435H435.137V461.559Z" fill="white"/>
<path d="M1227.08 385V403.55H1204.82V514.852H1186.12V403.55H1164.01V385H1227.08Z" fill="white"/>
<path d="M1138.09 514.859H1102.62L1087.93 500.168V385.156H1106.48V492.599L1110.19 496.458H1130.37L1134.23 492.599V385.156H1152.78V500.168L1138.09 514.859Z" fill="white"/>
<path d="M1034.11 496.458H1054.29L1058.15 492.599V407.417L1054.29 403.558H1034.11L1030.4 407.417V492.599L1034.11 496.458ZM1062.01 514.859H1026.54L1011.85 500.168V399.848L1026.54 385.156H1062.01L1076.7 399.848V500.168L1062.01 514.859Z" fill="white"/>
<path d="M1000.75 422.108H982.204V407.417L978.345 403.558H958.163L954.304 407.417V492.599L958.163 496.458H978.345L982.204 492.599V477.907H1000.75V500.168L986.062 514.859H950.594L935.902 500.168V399.848L950.594 385.156H986.062L1000.75 399.848V422.108Z" fill="white"/>
<path d="M909.972 514.859H874.504L859.812 500.168V477.907H878.363V492.599L882.073 496.458H902.255L906.114 492.599V473.01L859.812 435.91V399.848L874.504 385.156H909.972L924.664 399.848V422.108H906.114V407.417L902.255 403.558H882.073L878.363 407.417V427.006L924.664 464.106V500.168L909.972 514.859Z" fill="white"/>
<path d="M826.852 450L848.519 515H828.93L810.379 459.201H798.656V514.852H780.105V385.148H798.656V440.651H810.379L828.93 385H848.519L826.852 450Z" fill="white"/>
<path d="M768.875 385.148V515H753.441L722.574 440.651V514.852H704.023V385H719.457L750.325 459.349V385.148H768.875Z" fill="white"/>
<path d="M692.718 514.859H674.316V385.156H692.718V514.859Z" fill="white"/>
<path d="M663.158 514.859H607.508V385.156H626.058V496.458H663.158V514.859Z" fill="white"/>
</svg>
